<svg width="17" height="22" viewBox="0 0 17 22" fill="none" xmlns="http://www.w3.org/2000/svg">
<path d="M8.5 21.4C6.31667 21.4 4.39567 20.6373 2.737 19.112C1.079 17.5873 0.25 15.5167 0.25 12.9C0.25 11.1833 0.925 9.31233 2.275 7.287C3.625 5.26233 5.7 3.06667 8.5 0.700001C11.3 3.06667 13.375 5.26233 14.725 7.287C16.075 9.31233 16.75 11.1833 16.75 12.9C16.75 15.5167 15.9207 17.5873 14.262 19.112C12.604 20.6373 10.6833 21.4 8.5 21.4ZM8.5 19.25C10.2167 19.25 11.6627 18.6583 12.838 17.475C14.0127 16.2917 14.6 14.7667 14.6 12.9C14.6 11.7 14.1043 10.3127 13.113 8.738C12.121 7.16267 10.5833 5.43333 8.5 3.55C6.41667 5.43333 4.87933 7.16267 3.888 8.738C2.896 10.3127 2.4 11.7 2.4 12.9C2.4 14.7667 2.99167 16.2917 4.175 17.475C5.35833 18.6583 6.8 19.25 8.5 19.25ZM8.75 17.85C8.95 17.8333 9.11667 17.7623 9.25 17.637C9.38333 17.5123 9.45 17.3583 9.45 17.175C9.45 16.975 9.375 16.8083 9.225 16.675C9.075 16.5417 8.9 16.4833 8.7 16.5C8.01667 16.55 7.296 16.375 6.538 15.975C5.77933 15.575 5.3 14.8167 5.1 13.7C5.06667 13.5 4.98333 13.3457 4.85 13.237C4.71667 13.129 4.575 13.075 4.425 13.075C4.20833 13.075 4.03333 13.15 3.9 13.3C3.76667 13.45 3.725 13.6417 3.775 13.875C4.04167 15.3417 4.696 16.3833 5.738 17C6.77933 17.6167 7.78333 17.9 8.75 17.85Z" fill="black"/>
</svg>
