<svg width="20" height="12" viewBox="0 0 20 12" fill="none" xmlns="http://www.w3.org/2000/svg">
<path d="M5.2 2.4V0.249997H19.375V2.4H5.2ZM5.2 7.05V4.9H19.375V7.05H5.2ZM5.2 11.75V9.6H19.375V11.75H5.2ZM1.85 2.525C1.51667 2.525 1.229 2.404 0.987 2.162C0.745667 1.92066 0.625 1.63333 0.625 1.3C0.625 0.966664 0.745667 0.679331 0.987 0.437997C1.229 0.195997 1.51667 0.0749969 1.85 0.0749969C2.18333 0.0749969 2.471 0.195997 2.713 0.437997C2.95433 0.679331 3.075 0.966664 3.075 1.3C3.075 1.63333 2.95433 1.92066 2.713 2.162C2.471 2.404 2.18333 2.525 1.85 2.525ZM1.85 7.225C1.51667 7.225 1.229 7.10433 0.987 6.863C0.745667 6.621 0.625 6.33333 0.625 6C0.625 5.66666 0.745667 5.379 0.987 5.137C1.229 4.89566 1.51667 4.775 1.85 4.775C2.18333 4.775 2.471 4.89566 2.713 5.137C2.95433 5.379 3.075 5.66666 3.075 6C3.075 6.33333 2.95433 6.621 2.713 6.863C2.471 7.10433 2.18333 7.225 1.85 7.225ZM1.85 11.925C1.51667 11.925 1.229 11.804 0.987 11.562C0.745667 11.3207 0.625 11.0333 0.625 10.7C0.625 10.3667 0.745667 10.079 0.987 9.837C1.229 9.59566 1.51667 9.475 1.85 9.475C2.18333 9.475 2.471 9.59566 2.713 9.837C2.95433 10.079 3.075 10.3667 3.075 10.7C3.075 11.0333 2.95433 11.3207 2.713 11.562C2.471 11.804 2.18333 11.925 1.85 11.925Z" fill="#848484"/>
</svg>
