<svg width="23" height="22" viewBox="0 0 23 22" fill="none" xmlns="http://www.w3.org/2000/svg">
<path d="M11.5 21.7C10.0167 21.7 8.62938 21.4167 7.33805 20.85C6.04605 20.2833 4.91672 19.5167 3.95005 18.55C2.98338 17.5833 2.21672 16.4543 1.65005 15.163C1.08338 13.871 0.800049 12.4833 0.800049 11C0.800049 9.51667 1.08338 8.129 1.65005 6.837C2.21672 5.54567 2.98338 4.41667 3.95005 3.45C4.91672 2.48333 6.04605 1.71667 7.33805 1.15C8.62938 0.583333 10.0167 0.299999 11.5 0.299999C14.15 0.299999 16.4584 1.14567 18.425 2.837C20.3917 4.529 21.5917 6.64167 22.025 9.175H19.8251C19.5584 7.79167 18.9751 6.55 18.0751 5.45C17.1751 4.35 16.05 3.54167 14.7 3.025V3.475C14.7 4.05833 14.4874 4.56233 14.062 4.987C13.6374 5.41233 13.1334 5.625 12.55 5.625H10.45V7.775C10.45 8.05833 10.346 8.304 10.138 8.512C9.92938 8.72067 9.68338 8.825 9.40005 8.825H7.20005V10.975H8.85005V14.175H8.27505L3.15005 9.05C3.10005 9.38333 3.05438 9.70833 3.01305 10.025C2.97105 10.3417 2.95005 10.6667 2.95005 11C2.95005 13.35 3.77505 15.3627 5.42505 17.038C7.07505 18.7127 9.10005 19.5583 11.5 19.575V21.7ZM20.4501 20.5L17.15 17.2C16.8334 17.4333 16.4917 17.596 16.125 17.688C15.7584 17.7793 15.3834 17.825 15 17.825C13.7834 17.825 12.7584 17.4083 11.925 16.575C11.0917 15.7417 10.675 14.7167 10.675 13.5C10.675 12.2833 11.0917 11.2583 11.925 10.425C12.7584 9.59167 13.7834 9.175 15 9.175C16.2167 9.175 17.2417 9.59167 18.0751 10.425C18.9084 11.2583 19.3251 12.2833 19.3251 13.5C19.3251 13.8833 19.275 14.2667 19.175 14.65C19.075 15.0333 18.9167 15.3833 18.7001 15.7L22 18.95L20.4501 20.5ZM15 15.675C15.6 15.675 16.1127 15.4627 16.538 15.038C16.9627 14.6127 17.175 14.1 17.175 13.5C17.175 12.9 16.9627 12.3873 16.538 11.962C16.1127 11.5373 15.6 11.325 15 11.325C14.4 11.325 13.8877 11.5373 13.463 11.962C13.0377 12.3873 12.825 12.9 12.825 13.5C12.825 14.1 13.0377 14.6127 13.463 15.038C13.8877 15.4627 14.4 15.675 15 15.675Z" fill="#848484"/>
</svg>
