<svg width="20" height="20" viewBox="0 0 20 20" fill="none" xmlns="http://www.w3.org/2000/svg">
<path d="M17.775 19.225L11.425 12.9C10.925 13.3 10.3126 13.6127 9.58798 13.838C8.86264 14.0627 8.14998 14.175 7.44998 14.175C5.56664 14.175 3.97498 13.525 2.67498 12.225C1.37498 10.925 0.724976 9.33333 0.724976 7.45C0.724976 5.58333 1.37498 3.99567 2.67498 2.687C3.97498 1.379 5.56664 0.724998 7.44998 0.724998C9.31664 0.724998 10.9 1.375 12.2 2.675C13.5 3.975 14.15 5.56667 14.15 7.45C14.15 8.18333 14.046 8.89167 13.838 9.575C13.6293 10.2583 13.325 10.8583 12.925 11.375L19.275 17.725L17.775 19.225ZM7.44998 12.025C8.73331 12.025 9.81264 11.5833 10.688 10.7C11.5626 9.81667 12 8.73333 12 7.45C12 6.16667 11.5626 5.08333 10.688 4.2C9.81264 3.31667 8.73331 2.875 7.44998 2.875C6.14998 2.875 5.06264 3.31667 4.18798 4.2C3.31264 5.08333 2.87498 6.16667 2.87498 7.45C2.87498 8.73333 3.31264 9.81667 4.18798 10.7C5.06264 11.5833 6.14998 12.025 7.44998 12.025Z" fill="#646464"/>
</svg>
