<svg width="20" height="14" viewBox="0 0 20 14" fill="none" xmlns="http://www.w3.org/2000/svg">
<path d="M10 8.825C9.50005 8.825 9.07105 8.64567 8.71305 8.287C8.35438 7.929 8.17505 7.5 8.17505 7C8.17505 6.5 8.35438 6.07067 8.71305 5.712C9.07105 5.354 9.50005 5.175 10 5.175C10.5 5.175 10.9294 5.354 11.288 5.712C11.646 6.07067 11.825 6.5 11.825 7C11.825 7.5 11.646 7.929 11.288 8.287C10.9294 8.64567 10.5 8.825 10 8.825ZM3.05005 13.95C2.15005 13.0333 1.44605 11.9873 0.938049 10.812C0.429382 9.63734 0.175049 8.36667 0.175049 7C0.175049 5.65 0.429382 4.38334 0.938049 3.2C1.44605 2.01667 2.15005 0.96667 3.05005 0.0500031L4.57505 1.575C3.87505 2.275 3.32505 3.08734 2.92505 4.012C2.52505 4.93734 2.32505 5.93334 2.32505 7C2.32505 8.06667 2.52505 9.06267 2.92505 9.988C3.32505 10.9127 3.87505 11.725 4.57505 12.425L3.05005 13.95ZM5.87505 11.125C5.34172 10.575 4.92505 9.954 4.62505 9.262C4.32505 8.57067 4.17505 7.81667 4.17505 7C4.17505 6.2 4.32505 5.45 4.62505 4.75C4.92505 4.05 5.34172 3.425 5.87505 2.875L7.40005 4.4C7.06671 4.73334 6.80438 5.12067 6.61305 5.562C6.42105 6.004 6.32505 6.48334 6.32505 7C6.32505 7.5 6.42105 7.975 6.61305 8.425C6.80438 8.875 7.06671 9.26667 7.40005 9.6L5.87505 11.125ZM14.125 11.125L12.6 9.6C12.9334 9.26667 13.196 8.875 13.388 8.425C13.5794 7.975 13.675 7.5 13.675 7C13.675 6.48334 13.5794 6.004 13.388 5.562C13.196 5.12067 12.9334 4.73334 12.6 4.4L14.125 2.875C14.6584 3.425 15.075 4.04567 15.375 4.737C15.675 5.429 15.825 6.18334 15.825 7C15.825 7.8 15.675 8.55 15.375 9.25C15.075 9.95 14.6584 10.575 14.125 11.125ZM16.9501 13.95L15.425 12.425C16.125 11.725 16.6751 10.9127 17.0751 9.988C17.4751 9.06267 17.675 8.06667 17.675 7C17.675 5.93334 17.4751 4.93734 17.0751 4.012C16.6751 3.08734 16.125 2.275 15.425 1.575L16.9501 0.0500031C17.8501 0.96667 18.554 2.01267 19.062 3.188C19.5707 4.36267 19.8251 5.63334 19.8251 7C19.8251 8.35 19.5707 9.61667 19.062 10.8C18.554 11.9833 17.8501 13.0333 16.9501 13.95Z" fill="#20BF55"/>
</svg>
