<svg width="21" height="20" viewBox="0 0 21 20" fill="none" xmlns="http://www.w3.org/2000/svg">
<path d="M2.5 19.575C2.06667 19.575 1.68733 19.4123 1.362 19.087C1.03733 18.7623 0.875 18.3833 0.875 17.95C0.875 17.5333 1.03733 17.1623 1.362 16.837C1.68733 16.5123 2.06667 16.35 2.5 16.35C2.93333 16.35 3.31267 16.5123 3.638 16.837C3.96267 17.1623 4.125 17.5333 4.125 17.95C4.125 18.3833 3.96267 18.7623 3.638 19.087C3.31267 19.4123 2.93333 19.575 2.5 19.575ZM16.875 19.575C16.875 17.275 16.475 15.146 15.675 13.188C14.875 11.2293 13.7627 9.53733 12.338 8.112C10.9127 6.68733 9.221 5.57067 7.263 4.762C5.30433 3.954 3.175 3.55 0.875 3.55V0.325001C3.625 0.325001 6.17067 0.812334 8.512 1.787C10.854 2.76233 12.8833 4.11233 14.6 5.837C16.3167 7.56233 17.6667 9.6 18.65 11.95C19.6333 14.3 20.125 16.8417 20.125 19.575H16.875ZM8.875 19.575C8.875 17.1583 8.146 15.2167 6.688 13.75C5.22933 12.2833 3.29167 11.55 0.875 11.55V8.325C2.50833 8.325 4.01267 8.604 5.388 9.162C6.76267 9.72067 7.95 10.496 8.95 11.488C9.95 12.4793 10.7293 13.6667 11.288 15.05C11.846 16.4333 12.125 17.9417 12.125 19.575H8.875Z" fill="black"/>
</svg>
